<svg xmlns="http://www.w3.org/2000/svg" xmlns:xlink="http://www.w3.org/1999/xlink" version="1.1" x="0px" y="0px" viewBox="-7.786 0 100 125.0025" enable-background="new -7.786 0 100 100.002" xml:space="preserve"><path d="M80.29,47.969c-1.354-1.704-3.314-2.301-4.914-2.269c-0.69,0.005-1.32,0.112-1.92,0.243l0.002-0.009  c0-5.808,1.398-11.152,1.398-16.083c0-4.919-2.927-13.398-11.944-14.292c0,0-5.919-16.795-40.807-12.291c0,0,3.376,2.112,4.22,2.95  c0.843,0.848,0.843,0.848,0.843,0.848s-8.582-0.424-13.646,3.235c0,0,3.519,0.988,4.221,2.952c0,0-9.917,0.635-13.787,4.504  c0,0,4.923,0.56,4.923,13.363c0,3.888,1.147,9.971,2.974,14.546c-0.013,0.163-0.035,0.317-0.044,0.471  c-0.801-0.238-1.738-0.43-2.758-0.439c-1.601-0.032-3.562,0.565-4.91,2.269c-1.353,1.696-2.031,4.123-2.031,7.62  c0,11.768,8.22,15.413,11.224,16.347c5.256,14.892,15.97,25.507,28.889,25.566c12.897-0.06,23.613-10.675,28.868-25.566  c3.007-0.934,11.223-4.579,11.223-16.347C82.317,52.091,81.64,49.636,80.29,47.969z M69.405,68.677l-1.059,0.178l-0.336,1.021  c-4.894,14.56-14.856,24.063-25.784,24.017c-10.928,0.047-20.912-9.457-25.777-24.017l-0.362-1.021l-1.059-0.178  c0.022-0.112-9.309-1.345-9.309-13.089c0.272-6.125,1.914-6.284,3.335-6.284c3.913,0,6.18,2.271,6.18,2.271l0.04-2.729  c0.126-3.459,0.511-6.801,1.076-10.013c3.403-9.551,7.591-10.877,9.344-10.877c1.757,0,7.805,1.051,12.024,1.051  c10.41,0,13.085-2.672,19.695-2.672c6.282,0,10.703,13.986,11.128,15.378c0.313,2.316,0.547,4.691,0.635,7.133l0.113,2.729  c0,0,3.206-2.272,6.087-2.272c1.424,0,3.064,0.131,3.338,6.284C78.713,67.332,69.405,68.564,69.405,68.677z"/><text x="-7.786" y="115.002" fill="#000000" font-size="5px" font-weight="bold" font-family="'Helvetica Neue', Helvetica, Arial-Unicode, Arial, Sans-serif">Created by Mauro Lucchesi</text><text x="-7.786" y="120.002" fill="#000000" font-size="5px" font-weight="bold" font-family="'Helvetica Neue', Helvetica, Arial-Unicode, Arial, Sans-serif">from the Noun Project</text></svg>